HIERARCHY
ROOT pelvis
{
  OFFSET 0 100 0
  CHANNELS 6 Xposition Yposition Zposition Zrotation Xrotation Yrotation
  JOINT pelvis_right_femur
  {
    OFFSET -10.78128 -3.44521 -0.5502486
    CHANNELS 3 Zrotation Xrotation Yrotation
    JOINT right_femur_tibia
    {
      OFFSET -0.8047443 -44.0398 -0.1307829
      CHANNELS 3 Zrotation Xrotation Yrotation
      JOINT right_tibia_foot
      {
        OFFSET 3.006224 -47.83518 -5
        CHANNELS 3 Zrotation Xrotation Yrotation
        End Site
        {
          OFFSET 0 -5 15
        }
      }
    }
  }
  JOINT pelvis_left_femur
  {
    OFFSET 10.78128 -3.44521 -0.5502486
    CHANNELS 3 Zrotation Xrotation Yrotation
    JOINT left_femur_tibia
    {
      OFFSET 0.8047443 -44.0398 -0.1307829
      CHANNELS 3 Zrotation Xrotation Yrotation
      JOINT left_tibia_foot
      {
        OFFSET -4.370144 -48.10324 -4.275266
        CHANNELS 3 Zrotation Xrotation Yrotation
        End Site
        {
          OFFSET 0 -5 15
        }
      }
    }
  }
  JOINT pelvis_spine1
  {
    OFFSET 0 6.468898 -3.129235
    CHANNELS 3 Zrotation Xrotation Yrotation
    JOINT spine1
    {
      OFFSET 0 23.15396 4.99043
      CHANNELS 3 Zrotation Xrotation Yrotation
      JOINT spine2
      {
        OFFSET 0 20.79997 -5.064912
        CHANNELS 3 Zrotation Xrotation Yrotation
        JOINT neck
        {
          OFFSET 0 14.38658 9.616178
          CHANNELS 3 Zrotation Xrotation Yrotation
          End Site
          {
            OFFSET 0 20 0
          }
        }
      }
      JOINT right_manubrium
      {
        OFFSET -5.722621 16.35077 3.967754
        CHANNELS 3 Zrotation Xrotation Yrotation
        JOINT right_clavicle
        {
          OFFSET -13.16364 1.694482 -4.693211
          CHANNELS 3 Zrotation Xrotation Yrotation
          JOINT right_humerus
          {
            OFFSET -28.5034 -0.3100689 -2.792744
            CHANNELS 3 Zrotation Xrotation Yrotation
            JOINT right_radius
            {
              OFFSET -25.15693 0.02248979 -1.271978
              CHANNELS 3 Zrotation Xrotation Yrotation
              End Site
              {
                OFFSET -15 0 0
              }
            }
          }
        }
      }
      JOINT left_manubrium
      {
        OFFSET 5.722621 16.35077 3.967754
        CHANNELS 3 Zrotation Xrotation Yrotation
        JOINT left_clavicle
        {
          OFFSET 13.16364 1.694482 -4.693211
          CHANNELS 3 Zrotation Xrotation Yrotation
          JOINT left_humerus
          {
            OFFSET 29.39168 -1.063119 -2.237045
            CHANNELS 3 Zrotation Xrotation Yrotation
            JOINT left_radius
            {
              OFFSET 24.59957 -0.9528479 0.9047498
              CHANNELS 3 Zrotation Xrotation Yrotation
              End Site
              {
                OFFSET 15 -0 -0
              }
            }
          }
        }
      }
    }
  }
}
MOTION
Frames: 13
Frame Time: 0.0416666666667
-1621.006 118.4544 1176.595 -9.214729 16.11415 -151.21 7.328765 9.956673 -8.016675 -0 13.20859 -0 -15.46801 -1.879821 -0.9416275 0.635715 -3.260108 -6.149954 -0 29.47437 -0 2.717414 -5.88867 20.535 -1.509816 -1.196211 4.367928 1.473386 11.7632 -8.20687 0.410069 20.06763 7.392028 5.58215 -22.33397 6.223295 2.504335 -19.19048 12.19602 89.5154 31.21022 -19.99278 -0 0 13.92875 -17.41984 9.535032 4.939172 8.94546 -25.12668 -3.965752 -87.4422 9.53548 13.97228 0 0 -19.30429 18.18904 12.12229 -12.8865
-1624.214 118.2235 1171.808 -7.859325 15.31081 -152.4454 7.305877 12.61008 -6.208089 -0 15.35164 -0 -14.99945 -5.185322 -1.341445 1.788681 -7.205282 -5.843597 -0 23.77556 -0 2.756232 -3.987908 19.68814 -1.451627 -1.127966 4.696929 1.261134 12.36388 -7.94319 0.3865808 20.43244 6.974412 5.490668 -21.29792 5.661901 2.689148 -19.43529 12.31822 89.15866 30.60802 -19.46439 -0 0 14.34553 -17.80974 9.535581 5.358853 8.446453 -25.2127 -4.730671 -87.92738 9.730169 15.11845 0 0 -18.00518 17.62151 12.20047 -11.71907
-1627.651 117.9966 1167.042 -6.521014 14.0429 -153.5275 6.773369 14.31605 -4.337248 -0 17.80739 -0 -13.98287 -7.755366 -1.550766 2.441144 -9.791791 -5.717803 -0 17.86324 -0 2.603146 -2.266807 18.39918 -1.400136 -1.087762 5.003383 1.064224 12.87109 -7.688553 0.357338 20.74622 6.620299 5.407643 -20.44963 5.19906 2.758238 -19.78215 12.42984 88.87076 30.05121 -18.89885 -0 0 14.87857 -18.18073 9.503082 5.696192 8.003752 -25.26701 -5.363668 -88.41089 9.809048 16.29222 0 0 -16.72892 17.20335 12.28616 -10.85593
-1631.342 117.82 1162.172 -5.668026 12.94673 -154.3552 5.824682 15.70404 -2.956581 -0 20.45268 -0 -12.87074 -9.017606 -1.396813 2.350546 -10.85385 -6.305186 -0 13.34045 -0 1.879078 -1.116915 17.49655 -1.356297 -1.078324 5.271441 0.9006745 13.27105 -7.465308 0.3262885 20.99361 6.335357 5.332286 -19.80631 4.842844 2.752531 -20.17961 12.5258 88.64432 29.58903 -18.35457 -0 0 15.46294 -18.49107 9.464629 5.943198 7.635019 -25.29576 -5.852276 -88.86761 9.79565 17.41666 0 0 -15.54652 16.93373 12.38643 -10.28508
-1635.205 117.7185 1157.137 -5.492744 12.50957 -154.9525 4.657842 17.36733 -2.623093 -0 23.15417 -0 -12.35615 -8.863838 -0.6793012 1.532609 -10.74932 -7.953219 -0 10.76268 -0 0.3541294 -0.9135466 17.668 -1.318853 -1.09673 5.50551 0.7737981 13.57989 -7.280508 0.2965879 21.18108 6.103023 5.25725 -19.33699 4.576493 2.706052 -20.60034 12.6062 88.46576 29.23889 -17.85713 -0 0 16.06461 -18.7239 9.436378 6.10417 7.330671 -25.30618 -6.215941 -89.29304 9.718382 18.47598 0 0 -14.46178 16.78898 12.50631 -9.951366
-1639.108 117.7446 1151.939 -5.830905 12.7161 -155.3914 3.459958 19.31321 -3.352912 -0 25.94382 -0 -12.78332 -7.470499 0.6199159 0.2548312 -9.973265 -10.44271 -0 9.805604 -0 -1.690358 -1.675484 18.88076 -1.285682 -1.139572 5.718721 0.6790388 13.82245 -7.131395 0.2695591 21.32274 5.901042 5.173958 -18.99725 4.3763 2.636462 -21.04179 12.6735 88.32218 28.99377 -17.40528 -0 0 16.68079 -18.8807 9.425227 6.18813 7.071337 -25.30426 -6.483689 -89.69611 9.595887 19.49467 0 0 -13.44169 16.743 12.64954 -9.798983
-1642.943 117.9753 1146.614 -6.393906 13.24675 -155.7217 2.338363 21.04481 -4.696136 -0 29.01284 -0 -14.03286 -5.038679 2.315002 -1.161715 -8.836336 -13.17853 -0 9.942039 -0 -3.63126 -3.080415 20.58074 -1.254882 -1.204997 5.920285 0.6122156 14.01575 -7.016159 0.2463688 21.42915 5.713022 5.074663 -18.75768 4.227143 2.547084 -21.50953 12.72877 88.21178 28.84212 -16.99701 -0 0 17.31525 -18.96651 9.434286 6.19768 6.843428 -25.29428 -6.675156 -90.08167 9.436216 20.49202 0 0 -12.46203 16.7824 12.82031 -9.800494
-1646.636 118.4717 1141.221 -6.968509 13.81018 -155.9586 1.328082 21.95207 -6.148789 -0 32.51628 -0 -15.79505 -1.758265 4.150113 -2.47398 -7.434671 -15.57835 -0 10.78563 -0 -4.921154 -4.712608 22.19983 -1.225153 -1.291051 6.109387 0.5727404 14.1641 -6.939941 0.2303759 21.50504 5.531123 4.95178 -18.6142 4.128751 2.430358 -22.00328 12.76994 88.15145 28.77983 -16.6475 -0 0 17.9582 -18.98187 9.464491 6.122545 6.644353 -25.27764 -6.79387 -90.43839 9.242892 21.45204 0 0 -11.53086 16.91143 13.02439 -9.965835
-1650.148 119.2515 1135.832 -7.43425 14.2349 -156.0981 0.4401609 21.5383 -7.362223 -0 36.35827 -0 -17.71537 2.053485 5.871992 -3.525554 -5.759528 -17.24513 -0 12.01873 -0 -5.294494 -6.242624 23.35573 -1.196004 -1.392454 6.274882 0.562628 14.26074 -6.91413 0.2286247 21.55194 5.354459 4.796711 -18.58695 4.095415 2.269096 -22.51178 12.79167 88.17775 28.81041 -16.38995 -0 0 18.58104 -18.92268 9.511051 5.941466 6.479649 -25.24885 -6.828092 -90.73693 9.023528 22.31823 0 0 -10.68651 17.14623 13.26728 -10.33293
-1653.462 120.2675 1130.524 -7.729052 14.4479 -156.1368 -0.2953817 19.56438 -8.191829 -0 40.0564 -0 -19.40469 5.833645 7.233021 -4.235509 -3.791973 -18.02498 -0 13.25758 -0 -4.815076 -7.507598 23.86124 -1.168377 -1.498267 6.398606 0.5839759 14.29013 -6.950862 0.2511643 21.57085 5.188194 4.600681 -18.71467 4.152082 2.037119 -23.0142 12.78582 88.3386 28.93806 -16.26177 -0 0 19.14391 -18.78425 9.556591 5.632273 6.357241 -25.19027 -6.753535 -90.93681 8.797584 23.00758 0 0 -9.982461 17.50031 13.54715 -10.9434
-1656.579 121.3946 1125.361 -7.845772 14.46227 -156.0854 -0.8302537 16.18293 -8.708009 -0 42.76782 -0 -20.4967 8.85665 8.02767 -4.604963 -1.554611 -18.03531 -0 14.07341 -0 -3.831395 -8.538588 23.73461 -1.14566 -1.592988 6.460853 0.6370733 14.22969 -7.055797 0.3070523 21.56207 5.045536 4.359646 -19.04518 4.326953 1.703733 -23.48479 12.74261 88.67561 29.1603 -16.28469 -0 0 19.60948 -18.56574 9.566266 5.186432 6.283278 -25.07171 -6.537556 -90.99861 8.597386 23.43623 0 0 -9.471742 17.96772 13.84452 -11.81204
-1659.515 122.4495 1120.362 -7.833427 14.34326 -155.9725 -1.14986 11.90435 -9.122068 -0 43.6011 -0 -20.78948 10.56022 8.190494 -4.711743 0.865367 -17.57407 -0 14.17798 -0 -2.774817 -9.487316 23.16523 -1.133934 -1.661703 6.445844 0.7200353 14.05449 -7.223518 0.3982074 21.52281 4.950271 4.082296 -19.61952 4.64069 1.245705 -23.89679 12.6537 89.20402 29.465 -16.45314 -0 0 19.95226 -18.27353 9.493462 4.61977 6.261817 -24.86203 -6.149086 -90.8963 8.45693 23.54474 0 0 -9.199052 18.51637 14.11812 -12.90783
-1662.298 123.25 1115.498 -7.763768 14.13845 -155.8408 -1.302102 7.331465 -9.638385 -0 42.09894 -0 -20.34563 10.8638 7.857721 -4.676582 3.32067 -16.91931 -0 13.60079 -0 -1.897044 -10.48306 22.38634 -1.140262 -1.695676 6.343765 0.8294627 13.74625 -7.439105 0.5156064 21.44608 4.935766 3.79597 -20.45382 5.096996 0.6627602 -24.22134 12.51749 89.90403 29.83335 -16.74269 -0 0 20.15365 -17.9239 9.298551 3.971566 6.298587 -24.54942 -5.573491 -90.62165 8.39285 23.30407 0 0 -9.206445 19.09947 14.31487 -14.16336
